<?xml version="1.0" encoding="utf-8"?>
<!-- Generator: Adobe Illustrator 28.0.0, SVG Export Plug-In . SVG Version: 6.00 Build 0)  -->
<svg version="1.1" id="Layer_1" xmlns="http://www.w3.org/2000/svg" xmlns:xlink="http://www.w3.org/1999/xlink" x="0px" y="0px"
	 viewBox="0 0 584.8 368.1" style="enable-background:new 0 0 584.8 368.1;" xml:space="preserve">
<path d="M80.3,157c-0.1,0.3-0.1,0.6,0.2,0.9c0.1,0.1,0.2,0.2,0.4,0.2c0.2,0.1,0.5,0.2,0.8,0.2c0.4,0,0.8-0.1,1.2-0.3
	c0.4-0.2,0.7-0.4,1.1-0.8c0.3-0.3,0.7-0.7,1-1c0.3-0.3,0.7-0.8,1.1-1.4c0.4-0.6,0.7-1,0.9-1.4c0.2-0.4,0.5-0.9,0.9-1.6
	c0.4-0.7,0.6-1.2,0.8-1.5c0.2-0.3,0.4-0.8,0.8-1.5c0.3-0.7,0.5-1.1,0.6-1.2c4-7.6,8.1-14.9,12.3-21.6c5.7-0.9,12.2-2.3,19.6-4.2
	c8-1.9,16.3-4.3,24.6-7.3s16.9-6.6,25.3-10.7c8.5-4.1,16.4-9,23.7-14.5c7.2-5.6,13.1-11.4,17.3-17.5c4.3-5.8,6.9-11.7,8-17.5
	c1-5.5,0.3-10.2-2.1-13.9c-4.2-7.6-12.8-12.5-25.4-14.7c-6.6-0.9-12.3-1.3-17.1-1.3c-18,0-35.3,3.9-51.2,11.6
	c-14.7,6.8-23.9,14.7-27.5,23.5c-0.7,2-1.3,4.3-1.8,7c-1.2,7.1,0.2,11.9,4.3,14.1l0.1,0.1c1,0.3,1.3,0.3,1.5,0.3
	c0.7,0,1.3-0.2,1.8-0.7c0.5-0.5,0.8-1,0.9-1.7c0.2-1.2-0.3-2.4-1.5-3.7c-1.9-1.8-2.4-4.9-1.7-9c0.4-2.3,1.2-4.8,2.3-7.5
	c1-1.8,2.3-3.6,3.9-5.3c1.6-1.7,3.1-3.2,4.7-4.4c1.5-1.2,3.4-2.5,5.7-3.8s4.2-2.4,5.7-3.2c1.5-0.8,3.5-1.7,5.9-2.9
	c14.8-6.5,30.2-9.8,45.8-9.8c5.6,0,11.7,0.5,18,1.6c6,1.2,11.1,3.4,15.3,6.4c4.1,3,6.7,7,7.5,12c0.2,2.4,0.2,4.5-0.1,6.2
	c-0.8,4.7-3,9.5-6.4,14.3c-3.4,4.8-7.6,9.3-12.3,13.4c-7.1,5.9-15.1,11.2-23.6,15.5c-8.5,4.3-18.4,8.6-29.4,12.8
	c-13.6,4.7-26.7,7.9-38.7,9.7c6.2-9.7,14.7-21.9,25-36.5c1.8-2.6,5.3-7.5,10.4-14.6c5.1-7.1,9-12.7,11.6-16.7
	c0.3-0.5,0.5-0.8,0.5-1.1c0.1-0.7-0.1-1.4-0.6-1.9c-1-0.9-2.4-1-3.8-0.1l-0.1,0.1c-1,1.3-2.4,3.3-4,6c-1.6,2.7-2.9,4.7-3.9,6
	c-2.7,3.9-7.1,10.4-13.2,19.3c-6.2,8.9-10.9,15.8-14,20.6c-3.7,5.2-7.9,11.8-12.5,19.5c-0.6,0.1-1.3,0.1-2.2,0.2
	c-1.1,0.1-1.9,0.2-2.4,0.2l-0.1,0c-0.2,0.1-0.6,0.1-1.4,0.1c-0.4,0-1.1,0-2.1-0.1c-1-0.1-1.8-0.1-2.4-0.1c-3.1,0-4.8,0.8-5.1,2.3
	c-0.1,0.6,0,1.2,0.3,1.9l0.1,0.3l0.3,0c2.4,0.2,4.2,0.3,5.4,0.3c2.1,0,4.3-0.1,6.6-0.3c-4.8,8.2-8.5,14.4-11,18.4
	C82.8,151.2,80.7,155.1,80.3,157L80.3,157z"/>
<path d="M224.7,122.8c1.1-1.8,1.9-3.2,2.6-4.3c0.7-1.1,1.7-2.8,3.1-4.8c1.4-2.1,2.3-3.5,2.8-4.2s1.6-2.3,3.2-4.7
	c1.8-2.6,2.7-3.9,3-4.2c1-1.2,1.6-2.4,1.9-3.6c0.2-1.2,0-2.1-0.7-2.9c-0.7-0.7-1.5-1.1-2.6-1.1c-1.3,0-2.4,0.4-3.2,1.3
	c-1.9,1.8-4.7,4.6-8.4,8.4c-3.8,3.7-7.1,7-9.9,9.8c-2.9,2.8-5.4,5.3-7.7,7.4c-1.9,1.8-3.2,3.1-4,3.8c-0.8,0.7-2,1.7-3.6,3
	c-1.4,1.1-2.6,2-3.8,2.8c0.1-0.7,0.8-2.6,3.2-7.7c2.7-5.7,3.1-7.1,3.2-7.7c0.3-1.5-0.1-3.4-1-5.6c-1-2.3-2.4-3.4-4.1-3.4h-0.5
	c-0.9,0.1-1.7,0.2-2.4,0.4c-0.8,0.2-1.5,0.5-2.3,0.8c-0.7,0.4-1.3,0.7-1.8,0.9c-0.5,0.3-1.1,0.8-1.9,1.4c-0.8,0.7-1.3,1.2-1.7,1.5
	c-0.4,0.3-1,0.9-1.9,1.8c-0.9,0.9-1.6,1.5-2,1.9c-5.1,5.1-8.8,9.8-10.8,13.9c-0.3,0.6-0.5,1.1-0.6,1.4c-0.2,1.1,0.1,2,0.8,2.6
	c0.7,0.6,1.6,0.9,2.7,0.9c1.1,0,2.1-0.3,3.1-0.9c2.7-1.6,4.4-2.6,5.3-3.2c0.9-0.5,2.1-1.4,3.6-2.5c1.5-1.1,3.1-2.3,4.8-3.7h0.2
	c0.3,0,0.5,0.1,0.6,0.2c0.1,0.1,0.1,0.3,0,0.5c0,0.2-0.2,0.8-1,2.3c-0.7,1.3-1,2.3-1.2,3l-0.3,1.7c-0.3,1.5,0,2.9,0.9,3.9
	c0.9,1.1,2,1.6,3.5,1.6c1.5,0,2.9-0.6,4.1-1.8c2.9-2.3,6.3-5.2,10-8.8c3.7-3.6,7.9-7.7,12.2-12.1c3.7-3.8,6.6-6.6,8.5-8.5
	c-0.7,1-1.5,2.2-2.5,3.7c-1.8,2.7-3.2,4.8-4.1,6.3c-0.9,1.5-2.1,3.3-3.5,5.6c-1.4,2.3-2.7,4.4-3.8,6.5c-1.1,2-2.1,4.1-2.9,6
	c-0.8,1.1-1.2,2.2-1.4,3.3c-0.2,1.2-0.1,2.2,0.3,3.1c0.4,0.9,1.2,1.4,2.3,1.4c0.1,0,0.3,0,1.5-0.3l0.2-0.1c1.7-1.2,3.3-2.6,4.9-4.2
	c1.6-1.6,3.2-3.4,5-5.5c1.7-2,3.1-3.6,4.2-4.7c6.3-6.8,11.5-12.2,15.6-16.1l-3.3,14.5l-0.3,1.5c-0.6,3.3-0.6,6.1,0,8.3
	c0.8,2.5,3,3.7,6.4,3.7c2.5,0,4.9-0.7,7.1-2.1c1-0.6,2-1.2,3.1-2c1.1-0.8,2.3-1.6,3.6-2.6c1.3-1,2.4-1.8,3.3-2.6
	c1-0.7,2.2-1.7,3.7-3c1.5-1.3,2.6-2.2,3.2-2.7l0.3-0.2c-0.1,0.1-0.1,0.3-0.2,0.4c-0.8,1.6-1.3,3.2-1.6,4.8c-0.4,2-0.2,3.7,0.4,4.9
	c0.7,1.4,2.2,2.1,4.5,2.1c0.8,0,1.6-0.1,2.7-0.3c0.8-0.2,1.6-0.4,2.4-0.7c0.8-0.3,1.5-0.6,2.2-0.8c0.6-0.2,1.4-0.6,2.4-1.1
	c1-0.5,1.7-0.8,2.1-1.1l2.3-1.2c1.1-0.6,1.8-0.9,2.1-1.1c3.4-1.9,5.6-3.1,6.8-3.8c0.9-0.5,2-1.2,3.4-2.1c-1.1,1.8-2.2,3.7-3.4,5.7
	c-1.4,2.7-2.2,4.5-2.3,5.4c-0.1,0.7-0.1,1.5,0.1,2.4l0,0.1c0.5,1,1.4,1.6,2.5,1.6c1.7,0,3.2-0.6,4.2-1.9c1.9-1.8,4.4-4.5,7.4-8.2
	c3-3.7,5.3-6.2,6.7-7.7c5.1-5.3,9.6-9,13.4-10.9c0.1,0.4,0.1,1-0.1,2.2c-0.1,0.5-0.2,1.1-0.4,1.9c-0.2,0.8-0.3,1.4-0.4,1.7
	c-0.2,0.9-0.8,3-1.7,6.1c-0.9,3.1-1.5,5.5-1.8,7.2c-0.3,1.6-0.4,2.7-0.5,3.5c-0.1,1.4,0.3,2.6,1.2,3.6c0.9,1.1,2.1,1.6,3.5,1.6
	c0.3,0,0.8-0.1,1.5-0.3c1.1-0.4,2.3-0.9,3.4-1.5c1.1-0.7,2.4-1.6,3.9-2.9c1.6-1.3,2.5-2,2.9-2.3c1.8-1.5,3.5-3,5-4.3
	c-0.1,0.3-0.2,0.7-0.4,1l-0.2,1.2c-0.6,3.2,0.3,5.3,2.5,6.2c0.7,0.3,1.5,0.5,2.4,0.5c2.1,0,4.3-0.7,6.4-1.9c3.8-2.3,7.2-6,10-10.9
	l0.8-1.6c0.4-0.8,0.7-1.4,0.9-1.8c0.2-0.4,0.4-0.9,0.6-1.6c0.1-0.3,0.2-0.6,0.2-0.9c0.7,0.8,1.6,1.6,2.7,2.3c1.5,1,3.1,1.7,4.8,2
	c0.5,0.1,1.2,0.2,2.2,0.2c3.1,0,6.6-1,10.2-2.9c1.4-0.8,2.1-1.6,2.3-2.4c0.1-0.6-0.1-1.1-0.5-1.5c-0.9-0.8-2.4-0.6-3.6,0.2
	c-2.4,1.1-4.7,1.7-7,1.7c-1.3,0-2.5-0.2-3.5-0.5c-0.6-0.2-1.1-0.5-1.6-0.9c-0.5-0.4-1-0.9-1.5-1.5c-0.5-0.7-0.9-1.2-1.2-1.6
	c-0.3-0.4-0.7-1-1.1-1.8c-0.4-0.7-0.6-1.1-0.8-1.4c0-0.8-0.2-1.3-0.7-1.7c-0.5-0.3-1.1-0.6-2-0.7c-1-0.2-1.3-0.2-1.4-0.3l-0.2,0
	c-0.7,0-1.5,0.3-2.6,1.1c-1.1,0.8-1.8,1-2.1,1l-0.1,0.1c-2.5,1.3-5.2,3.5-7.8,6.4c-0.2,0.2-0.5,0.3-0.7,0.6
	c-3.2,3.1-6.4,5.8-9.5,8.1c-3.1,2.3-6.9,5.1-11.4,8c-0.7,0.6-1.2,0.9-1.7,0.8c-0.1,0-0.1-0.1-0.1-0.1c0-0.1-0.2-0.3,0-1.1l0.4-2.4
	c0.3-1.5,1.4-5.9,3.4-13.2c0.5-1.6,0.8-2.8,1-3.9c0.4-2.3,0.2-4.3-0.7-5.9l-0.1-0.1c-0.8-0.9-1.8-1.4-3.1-1.4c-1.2,0-2.4,0.3-3.5,1
	c-1,0.5-2,1.1-2.9,1.8s-1.8,1.2-2.5,1.8c-0.7,0.5-1.6,1.3-2.6,2.2L322,110c-0.9,0.8-1.6,1.4-2,1.9c-0.5,0.5-1.4,1.3-2.4,2.5
	c-1.1,1.2-1.8,1.9-2.1,2.3l-2.3,2.6c-1.2,1.3-1.9,2.1-2.2,2.4c-1.5,1.7-2.7,3.1-3.7,4.2c2.8-4.8,5.1-8.5,7-11.2
	c0.4-0.6,1.1-1.5,2.3-2.6c1.6-1.6,1.9-2,2-2.2c0.3-0.8,0.2-1.6-0.5-2.2c-0.6-0.5-1.3-0.8-2-0.8h-0.1c-2.2,0.4-4.2,2.1-6,5.1
	c-0.3,0.5-0.6,1-1,1.6c-0.2,0.1-0.3,0.2-0.5,0.4c-3.2,2.4-6,4.3-8.1,5.7s-4.9,2.8-8,4.4c-5.2,2.7-9.8,4.4-13.7,5.3
	c-0.5,0.2-0.8,0.1-0.9,0.1c0,0-0.1-0.1-0.2-0.3c-0.2-0.6-0.1-1.3,0.1-2c0.5-1.7,1.2-3.5,2.1-5.2c0.9-1.7,1.7-3.1,2.5-4.1
	c0.8-1.1,2-2.6,3.6-4.7c0.4-0.5,0.7-1.2,0.8-1.9c0.2-0.9,0-1.6-0.4-2.1c-0.4-0.5-1-0.7-1.8-0.7c-0.4,0-0.8,0.1-1.1,0.2
	c-0.3,0.1-0.6,0.2-0.9,0.4c-0.3,0.2-0.5,0.4-0.8,0.7c-0.2,0.3-0.4,0.5-0.5,0.6c-0.1,0.2-0.3,0.4-0.6,0.7c-0.2,0.3-0.4,0.6-0.6,0.7
	c-0.5,0.7-0.9,1.4-1.3,1.9c-0.3,0.2-0.6,0.5-1,0.8c-2.1,1.9-5.4,4.4-9.7,7.7s-7.7,5.6-10.1,7c-3.5,2.1-6,3.2-7.4,3.2
	c-1.1,0-1.8-0.5-2.4-1.4c-0.2-0.6-0.4-2,0.3-5.9c0.4-2.2,1.4-5.9,2.9-11.1c1.6-5.2,2.5-8.9,2.9-10.9c0.2-1,0.1-1.8-0.3-2.2
	c-0.3-0.4-0.8-0.6-1.4-0.6c-1,0-2.3,0.5-3.9,1.6c-1.6,1-2.9,2.1-3.9,3.2c-1.8,2-4.5,4.9-7.9,8.7c-3.4,3.8-6.6,7.2-9.4,10.1
	c-2.2,2.3-4.3,4.4-6.4,6.4c0.4-0.8,0.7-1.6,1.1-2.3C222.8,126.2,223.7,124.5,224.7,122.8L224.7,122.8z M194.7,113.7
	c-0.8,1-2.2,2.4-4.2,4.2l-3.5,2.9c-2.1,1.8-3.8,3.1-4.8,3.9c-0.9,0.6-1.4,0.9-1.7,1c0.4-1,1.9-3.2,6.2-7.6c3.6-3.6,6.7-5.9,9.5-6.8
	C195.8,112.2,195.3,113,194.7,113.7z M353.6,128.1c0-0.2,0-0.4,0-0.4c0.1-0.6,0.3-1.2,0.5-1.8c0.3-0.6,0.6-1.3,1.1-2.1
	c0.5-0.8,0.8-1.4,0.9-1.8c2.3-4.1,5.2-7.3,8.4-9.4c0.6-0.4,1.4-0.8,2.4-1c0,0.3,0,0.7,0,1.2c0,0.8,0,1.4-0.1,1.8
	c-0.1,0.6-0.2,0.8-0.2,0.8l-0.1,0.1c-0.8,2.6-2.1,5.1-3.8,7.3c-1.7,2.2-3.8,4-6,5.2c-0.2,0.1-0.5,0.2-0.9,0.4
	c-0.4,0.2-0.7,0.3-1,0.4c-0.3,0.1-0.5,0.2-0.8,0.2c-0.1,0-0.2,0-0.3,0c0,0-0.1-0.1-0.1-0.4C353.6,128.6,353.6,128.4,353.6,128.1
	L353.6,128.1z"/>
<path d="M289.2,106.8c0.8,0,1.4-0.3,1.9-0.9c0.4-0.4,1.1-1.2,2.2-2.6c1.1-1.3,2-2.3,2.6-3l0.1-0.1c1.4-2.2,0.6-3.5-0.3-4.2
	c-1.1-0.8-2.5-0.7-3.7,0.4c-0.6,0.6-1.3,1.4-2,2.5l-1,1.5c-0.2,0.2-0.5,0.6-0.9,1.1c-0.4,0.5-0.7,0.8-0.9,1.1
	c-0.2,0.2-0.3,0.6-0.4,1.1c-0.1,0.8,0,1.5,0.5,2.1C287.9,106.5,288.5,106.8,289.2,106.8L289.2,106.8z"/>
<path d="M49.2,334c0,0.3-0.1,0.6,0.2,0.9c0.1,0.1,0.2,0.2,0.4,0.2c0.2,0.1,0.5,0.2,0.8,0.2c0.4,0,0.8-0.1,1.2-0.3
	c0.4-0.2,0.7-0.4,1.1-0.8c0.3-0.3,0.7-0.7,1-1c0.3-0.3,0.7-0.8,1-1.4c0.4-0.6,0.7-1,0.9-1.4c0.2-0.4,0.5-0.9,0.9-1.6
	c0.4-0.7,0.6-1.2,0.8-1.5c0.2-0.3,0.4-0.8,0.8-1.5c0.3-0.7,0.5-1.1,0.6-1.2c4-7.6,8.1-14.9,12.3-21.6c5.7-0.9,12.2-2.3,19.6-4.1
	c8-1.9,16.3-4.3,24.6-7.3s16.9-6.6,25.3-10.7s16.4-9,23.7-14.5c7.2-5.5,13.1-11.4,17.3-17.5c4.3-5.8,6.9-11.7,8-17.5
	c1-5.5,0.3-10.2-2.1-13.9c-4.2-7.6-12.8-12.6-25.4-14.7c-6.6-0.9-12.3-1.3-17.1-1.3c-18,0-35.3,3.9-51.2,11.6
	c-14.7,6.8-23.9,14.7-27.5,23.5c-0.7,2-1.3,4.3-1.8,7c-1.2,7.1,0.2,11.9,4.3,14.1l0.1,0c1,0.3,1.3,0.3,1.5,0.3
	c0.7,0,1.3-0.2,1.8-0.7c0.5-0.5,0.8-1,0.9-1.6c0.2-1.2-0.3-2.4-1.5-3.7c-1.9-1.8-2.4-4.9-1.7-9c0.4-2.3,1.2-4.8,2.3-7.5
	c1-1.8,2.3-3.6,3.9-5.3c1.6-1.7,3.1-3.2,4.7-4.4c1.5-1.2,3.4-2.5,5.7-3.9s4.2-2.4,5.7-3.2c1.5-0.8,3.5-1.7,5.9-2.9
	c14.8-6.5,30.2-9.8,45.8-9.8c5.6,0,11.7,0.6,18,1.6c6,1.2,11.1,3.4,15.3,6.4c4.1,3,6.7,7.1,7.5,12c0.2,2.4,0.2,4.5-0.1,6.2
	c-0.8,4.7-3,9.5-6.4,14.3c-3.4,4.8-7.6,9.3-12.3,13.4c-7.1,6-15.1,11.1-23.6,15.5c-8.5,4.3-18.4,8.6-29.4,12.8
	c-13.6,4.7-26.7,7.9-38.7,9.7c6.3-9.7,14.7-21.9,25-36.5c1.8-2.6,5.3-7.5,10.4-14.6c5.1-7.1,9-12.7,11.6-16.7
	c0.3-0.4,0.5-0.8,0.5-1.1c0.1-0.7-0.1-1.4-0.7-1.9c-1-0.9-2.4-1-3.8-0.1l-0.1,0.1c-1,1.3-2.3,3.3-4,6c-1.7,2.7-2.9,4.7-3.9,6
	c-2.7,4-7.1,10.4-13.2,19.3c-6.2,8.9-10.9,15.8-14,20.5c-3.7,5.2-7.9,11.8-12.5,19.5c-0.6,0-1.3,0.1-2.2,0.2
	c-1.1,0.1-1.9,0.2-2.4,0.2l-0.1,0c-0.2,0-0.6,0.1-1.4,0.1c-0.4,0-1.1,0-2.1-0.1c-1,0-1.8-0.1-2.4-0.1c-3.1,0-4.8,0.8-5.1,2.3
	c-0.1,0.6,0,1.2,0.3,1.9l0.1,0.3l0.3,0c2.4,0.2,4.2,0.3,5.4,0.3c2.1,0,4.3-0.1,6.6-0.3c-4.8,8.2-8.5,14.4-11,18.4
	C51.6,328.1,49.5,332,49.2,334L49.2,334z"/>
<path d="M350.5,304.7c-0.6,3.2,0.3,5.3,2.5,6.2c0.7,0.3,1.5,0.5,2.4,0.5c2.1,0,4.3-0.7,6.4-2c3.8-2.3,7.2-6,10-10.9l0.8-1.6
	c0.4-0.8,0.7-1.4,0.9-1.8c0.2-0.4,0.4-0.9,0.6-1.6c0.1-0.3,0.2-0.6,0.2-0.9c0.7,0.8,1.6,1.6,2.7,2.4c1.5,1,3.1,1.7,4.8,2
	c0.5,0.1,1.2,0.2,2.2,0.2c3.1,0,6.6-1,10.2-2.9c1.4-0.8,2.1-1.5,2.3-2.4c0.1-0.6-0.1-1.1-0.5-1.5c-0.9-0.8-2.4-0.6-3.6,0.2
	c-2.4,1.1-4.7,1.7-7,1.7c-1.3,0-2.5-0.2-3.5-0.5c-0.6-0.2-1.1-0.5-1.6-0.9c-0.5-0.4-1-0.9-1.5-1.5c-0.5-0.6-0.9-1.2-1.2-1.6
	c-0.3-0.4-0.7-1-1.1-1.8l-0.8-1.4c0-0.8-0.2-1.3-0.7-1.7c-0.5-0.3-1.1-0.6-2-0.7c-1-0.1-1.3-0.2-1.4-0.3l-0.2,0
	c-0.7,0-1.5,0.4-2.6,1.1c-1.1,0.8-1.8,1-2.1,1l-0.1,0c-2.5,1.3-5.2,3.5-7.9,6.5c-0.4,0.2-0.7,0.5-1.1,0.8c-7,6-13.4,11.1-19.1,15.3
	c-0.1,0-0.3,0.2-1,0.6l-1.1,0.7c-0.2,0.1-0.5,0.3-1.1,0.6c-0.5,0.3-0.9,0.5-1.1,0.6c-0.3,0.1-0.6,0.3-1.1,0.5s-0.9,0.4-1.2,0.5
	c-0.3,0.1-0.7,0.2-1.1,0.2c-0.4,0.1-0.8,0.1-1.1,0.1c-0.9,0-1.4-0.1-1.7-0.2c-0.8-1.4-1-3.5-0.5-6.3c0-0.2,0.1-0.6,0.3-1.1
	c0.1-0.5,0.2-0.9,0.3-1.1c4.9-15.1,13.4-32,25-50.3c1.7,0.3,3.5,0.8,5.2,1.2l0.2,0.1l0.2-0.1c1.3-0.6,2.1-1.5,2.3-2.4
	c1.5,0,3.1,0,4.9,0h3c0.2,0,0.7,0,1.2-0.1c0.5-0.1,0.9-0.1,1.2-0.1c6.2,0,12.7,0.9,19.3,2.6l0.2,0.1l0.2-0.1
	c1.4-0.6,2.1-1.5,2.3-2.5c0.2-0.9-0.1-1.7-0.8-2.4c-0.7-0.7-1.4-1-2.3-1c-0.5,0-0.9,0-1.2,0.1c-0.3,0-0.7-0.1-1.2-0.1
	c-0.5-0.1-1-0.1-1.3-0.1c-4.3-0.4-8.8-0.6-13.4-0.6c-1.8,0-4.4,0.1-8.1,0.1c-3.5,0.1-6.2,0.1-8,0.1h-0.4c0.2-0.4,0.5-0.9,0.9-1.4
	c0.6-1,1.1-1.7,1.4-2.2c0.5-0.7,1.4-2.1,2.8-4.2c1.4-2.1,2.6-3.9,3.7-5.2c1-1.4,2.1-2.7,3.2-3.9h0c0.5-0.7,0.9-1.2,1-1.8
	c0.1-0.8-0.1-1.5-0.6-2.1c-1.1-1.2-2.8-1.4-4.3,0.1c-1.1,1.2-2.1,2.5-3,3.9c-0.9,1.4-2,3-3.3,5l-2.6,4c-1.5,2.3-3.2,5-4.9,7.9
	c-3.2-0.2-6.5-0.4-9.9-0.4c-1.8,0-4.4,0.1-8.1,0.1c-3.5,0.1-6.2,0.1-8,0.1h-0.4c0.2-0.4,0.5-0.9,0.9-1.4c0.6-1,1.1-1.7,1.4-2.2
	c0.5-0.7,1.4-2.1,2.8-4.2c1.4-2.1,2.6-3.9,3.7-5.2c1-1.4,2.1-2.7,3.2-3.9h0c0.5-0.7,0.9-1.2,1-1.8c0.1-0.8-0.1-1.5-0.6-2.1
	c-1.1-1.2-2.8-1.4-4.3,0.1c-1.1,1.2-2.1,2.5-3,3.9c-0.9,1.4-2,3-3.3,5l-2.6,4c-1.5,2.4-3.2,5.1-5,8.1c-2.3,0.1-6.9,0.2-13.6,0.3
	c-7,0.2-12.5,0.2-16.3,0.2h-0.1c-0.3,0-0.7-0.1-1.4-0.1c-0.7-0.1-1.3-0.1-1.6-0.1c-1.1,0-2.5,0.5-3.1,2.8v0.1c0,0.9,0.2,1.7,0.7,2.2
	c0.5,0.5,1.1,0.7,2,0.7c0.3,0,0.8,0,1.5-0.1c0.6-0.1,1.1-0.1,1.4-0.1h0.6c10-0.9,18.8-1.5,26.1-1.8c0.1,0.5,0.3,0.9,0.6,1.2
	c0,0,0.1,0.1,0.1,0.1c-2.4,4.1-5.3,9-8.5,14.6c-4.6,8-8.5,15.9-11.8,23.6c-0.2,0.1-0.4,0.2-0.6,0.3c-7.6,5.3-17.1,10.1-28.2,14.2
	c-4.4,1.3-7.3,1.9-8.8,1.9c0,0-0.1,0-0.4-0.1c-0.3-0.1-0.5-0.1-0.6-0.1l0,0c-0.8,0-1.3-0.4-1.6-1c-0.4-0.7-0.5-1.4-0.3-2.3
	c0.6-3.5,2.2-6.8,4.8-9.9c0.5,0.1,1.1,0.2,1.7,0.2c3.6,0,8-1.7,13.2-5c3.2-2.3,5.1-4.9,5.6-7.7c0.1-0.8,0.2-1.3,0.1-1.6
	c-0.1-1.2-0.6-2.1-1.6-2.8c-0.9-0.7-2-1-3.2-1h-0.5c-3.3,0.2-7.2,2.2-11.5,5.9c-2,1.8-4,4-5.8,6.4c-0.7,0.9-1.4,1.7-1.9,2.4
	c-0.2,0.1-0.3,0.1-0.5,0.2c-6.9,2.4-14.3,4.3-22.1,5.8c0.5-0.9,0.9-1.8,1.4-2.8c0.6-0.5,0.9-1.1,1-1.7c0-0.1,0-0.1,0-0.2
	c8.9-16.4,21.7-35.4,38.2-56.8c1.8-0.5,2.8-1.6,3.1-3.3c0.2-1,0-1.9-0.6-2.6c-0.6-0.7-1.5-1.1-2.6-1.1h-0.5l-0.1,0.1
	c-1,0.8-1.9,1.7-2.7,2.7c-0.8,1-1.8,2.3-2.7,3.7c-1,1.4-1.7,2.5-2.2,3.2c-2.2,3.1-5.2,7.5-9,13.1c-3.8,5.6-6.5,9.6-8,11.8
	c-6.6,10.8-12.1,20.1-16.5,27.8c-0.6,0.2-1.1,0.5-1.7,0.9c-2.8,1.7-5.5,2.6-8.2,2.6c-2.2,0-4.2-0.6-6-1.9c-1-0.7-2.1-2.1-3.3-4
	c-1.2-1.9-2.1-3.2-2.7-3.9c-0.1-0.5-0.5-1-1.1-1.4c-0.6-0.5-1.3-0.7-2-0.7c-1.1,0-2.1,0.6-2.8,1.8c-0.6,0.8-1.6,1.9-3,3.6
	c1.1-1.7,2.2-3.2,3.3-4.7c0.4-0.9,0.5-1,0.5-1.1c0.1-0.8-0.1-1.4-0.6-1.9c-0.5-0.4-1.1-0.7-1.9-0.7c-0.9,0-1.7,0.3-2.3,1l0,0
	c-0.6,0.7-1.5,2.1-2.7,4.1c-1.2,2-1.9,3.2-2.2,3.7c-0.4,0.8-0.9,1.6-1.4,2.5c-0.2,0.1-0.3,0.2-0.5,0.3c-7.6,5.3-17.1,10.1-28.2,14.2
	c-4.4,1.3-7.3,1.9-8.8,1.9c0,0-0.1,0-0.4-0.1s-0.5-0.1-0.6-0.1l0,0c-0.8,0-1.3-0.4-1.6-1c-0.4-0.7-0.5-1.4-0.3-2.3
	c0.6-3.5,2.2-6.8,4.8-9.9c0.5,0.1,1.1,0.2,1.7,0.2c3.6,0,8-1.7,13.2-5c3.2-2.3,5.1-4.9,5.6-7.7c0.1-0.8,0.2-1.3,0.1-1.6
	c-0.1-1.2-0.6-2.1-1.6-2.8c-0.9-0.7-2-1-3.2-1H173c-3.3,0.2-7.2,2.2-11.5,5.9c-2,1.8-4,4-5.8,6.4c-2.7,3.4-4.1,5.3-4.4,5.8
	c-2.1,3.5-3.4,6.6-3.8,9.2c-0.2,1.4-0.3,2.9,0,4.4c0.2,1.6,1,2.8,2.4,3.7c1.3,0.9,2.8,1.3,4.5,1.3h0.4c1.1,0,2.3-0.2,3.5-0.4
	c1.2-0.2,2.5-0.6,3.9-1c1.4-0.5,2.5-0.8,3.3-1.2c0.9-0.3,2.1-0.8,3.7-1.5c1.6-0.6,2.7-1.1,3.4-1.3c4.9-2.2,9-4.3,12.2-6.1
	c1.4-0.8,2.9-1.7,4.5-2.7c-1.7,3.3-3.5,6.9-5.5,10.8c-0.7,1.1-0.9,1.5-0.9,1.8c-0.2,0.9,0.1,1.7,0.7,2.2c0.6,0.6,1.4,0.9,2.3,0.9
	c1.6,0,2.9-0.8,3.6-2.2c1-1.5,2.1-3.5,3.4-5.9c1.3-2.4,2.7-4.5,4.3-6.5c3-4,5.9-7.4,8.5-10c0.3,0.4,0.8,1,1.3,1.8
	c0.8,1.1,1.5,2,1.9,2.5c0.5,0.6,1.1,1.3,1.9,2.1c0.9,0.8,1.7,1.5,2.6,2c0.9,0.5,1.9,0.8,2.9,1c1.3,0.3,2.5,0.4,3.7,0.4
	c0.2,0,0.5,0,0.7,0c-0.6,0.5-0.9,1-1,1.5c-0.2,1,0.3,2,1.6,2.9c1.4,0.7,1.9,1.7,1.6,3.3c-0.1,0.8-0.6,2.1-1.4,3.7
	c-0.8,1.7-1.3,3-1.5,3.7c-2.9,8.5-4.7,14.9-5.4,18.8c-0.7,3.8-0.9,7-0.8,9.6c-0.2,1.8,0.2,3.4,1.3,4.7c1.1,1.3,2.5,2,4.1,2
	c2.1,0,3.9-1.1,5.1-3.3c3.5-4.5,6.1-11.1,7.7-19.5c0.5-4.5,0.7-8.4,0.7-11.6c0-3.3-0.6-6.4-1.7-9.3c-0.9-1.8-0.9-2.3-0.9-2.5
	c0-0.1,0.1-0.2,0.1-0.2c0.1-0.1,0.6-0.6,3.5-1.5c3.1-0.9,9.2-2.8,18-5.8c-1.5,2.8-2.4,5.2-2.8,7.3c-0.2,1.4-0.3,2.9,0,4.4
	c0.2,1.6,1,2.8,2.4,3.7c1.3,0.9,2.8,1.3,4.5,1.3h0.5c1.1,0,2.3-0.2,3.5-0.4c1.2-0.2,2.5-0.6,3.9-1c1.4-0.5,2.5-0.8,3.3-1.2
	c0.9-0.3,2.1-0.8,3.7-1.5c1.6-0.6,2.7-1.1,3.4-1.3c4.9-2.2,9-4.3,12.2-6.1c1.9-1,3.8-2.3,5.9-3.7c-0.1,0.2-0.2,0.5-0.3,0.7
	c-0.9,2.5-1.6,4.9-2,7.1c-0.7,4-0.2,7.1,1.5,9.3c1,1,2.5,1.5,4.4,1.5c2.9,0,5.6-0.8,8.3-2.3c2-1.2,4.2-2.6,6.5-4.4
	c2.4-1.8,4.2-3.2,5.4-4.2c1.2-1,3.4-2.9,6.6-5.7c0.5-0.4,0.9-0.8,1.3-1.1c-0.9,2.4-1.5,4.7-1.9,6.9c-0.7,4-0.2,7.1,1.5,9.3
	c1,1,2.5,1.5,4.4,1.5c2.9,0,5.6-0.8,8.3-2.3c2-1.2,4.2-2.6,6.5-4.4c2.4-1.8,4.2-3.2,5.4-4.2c0.8-0.6,1.9-1.6,3.5-3
	c-0.2,0.6-0.5,1.2-0.6,1.8L350.5,304.7L350.5,304.7z M356,305.1c0-0.2,0-0.4,0-0.5c0.1-0.6,0.3-1.2,0.5-1.8c0.3-0.6,0.6-1.3,1.1-2.1
	c0.5-0.8,0.8-1.4,0.9-1.8c2.3-4.1,5.2-7.3,8.4-9.4c0.6-0.4,1.4-0.8,2.3-1c0,0.3,0,0.7,0,1.1c0,0.8,0,1.4-0.1,1.8
	c-0.1,0.5-0.2,0.8-0.2,0.8l-0.1,0.1c-0.8,2.6-2.1,5.1-3.8,7.3c-1.7,2.2-3.8,4-6,5.2c-0.2,0-0.5,0.2-0.9,0.4c-0.4,0.2-0.7,0.3-1,0.4
	s-0.5,0.2-0.8,0.2c-0.1,0-0.2,0-0.3,0c0,0-0.1-0.1-0.1-0.4C356,305.5,356,305.3,356,305.1L356,305.1z M268.5,283.7
	c3.2-2.2,4.6-2.9,5.2-3c0,0,0,0.1,0,0.1c0,0.1,0,0.2,0,0.2c-0.1,0.7-0.9,1.9-3.6,3.8c-2.3,1.3-4.5,2.2-6.5,2.8
	C264.7,286.5,266.3,285.2,268.5,283.7L268.5,283.7z M167.2,283.7c3.2-2.2,4.6-2.9,5.2-3c0,0,0,0.1,0,0.1c0,0.1,0,0.2,0,0.2
	c-0.1,0.7-0.9,1.9-3.6,3.8c-2.3,1.3-4.5,2.2-6.5,2.8C163.4,286.5,165,285.2,167.2,283.7L167.2,283.7z M226.5,327.9l-0.2,1.4
	c-3.1,10.4-5.2,13.3-6.6,13.8c-0.3-0.3-1-2.1,0.6-11.6c0.7-4.2,1.3-7.2,1.7-8.8c1.1-4.2,2.6-8.4,4.3-12.5
	C227.6,315,227.7,321,226.5,327.9L226.5,327.9z M325.4,291.3c-7,6-13.4,11.1-19.1,15.3c-0.1,0-0.3,0.2-1,0.6l-1.1,0.7
	c-0.2,0.1-0.5,0.3-1.1,0.6c-0.5,0.3-0.9,0.5-1.1,0.6c-0.3,0.1-0.6,0.3-1.1,0.5s-0.9,0.4-1.2,0.5c-0.3,0.1-0.7,0.2-1.1,0.2
	c-0.4,0.1-0.8,0.1-1.1,0.1c-0.9,0-1.4-0.1-1.7-0.2c-0.8-1.4-1-3.5-0.5-6.3c0-0.2,0.1-0.6,0.3-1.1c0.1-0.5,0.2-0.9,0.3-1.1
	c4.9-14.9,13.1-31.4,24.4-49.3h0.2c10.5-0.9,19.5-1.6,27-1.8c0.2,0,0.4,0,0.5,0.1c-2.6,4.4-5.7,9.7-9.3,15.9
	c-4.6,8.1-8.6,16-11.9,23.7C326.3,290.7,325.8,291,325.4,291.3L325.4,291.3z"/>
<polygon points="0,27.7 31.5,27.7 31.5,9 414.2,9 414.2,27.7 448.5,27.7 448.5,0 0,0 "/>
<polygon points="417,359.1 34.3,359.1 34.3,340.4 0,340.4 0,368.1 448.5,368.1 448.5,340.4 417,340.4 "/>
<path d="M452.6,51.1h7.1c0.1,4,0.1,8,0.1,12v2.3c0,4,0,8-0.1,11.9l-4.7,0.5v1.8h13.8v-1.8l-4.7-0.5c-0.1-4-0.1-8-0.1-11.9v-2.3
	c0-4,0-8,0.1-12h7.1l1.1,5.9h2.6l-0.4-8.2h-25.1l-0.4,8.2h2.6L452.6,51.1L452.6,51.1z"/>
<path d="M473.9,79.7h10.6v-1.8l-4.5-0.6l2.6-7.6h10.8l2.6,7.7l-4.6,0.6v1.8h12.4v-1.8l-3.5-0.4l-9.8-28.8h-2.8l-9.8,28.6l-3.9,0.6
	L473.9,79.7L473.9,79.7z M488,53.7l4.6,13.8h-9.3L488,53.7L488,53.7z"/>
<path d="M527.1,71.6c0-4.3-2.3-7-8.4-9.3l-1.8-0.7c-3.4-1.3-5.2-3-5.2-5.9c0-3.5,2.7-5.2,6.3-5.2c1.4,0,2.6,0.3,3.8,0.9l1,5.2h2.8
	l0.3-6c-2-1.5-4.4-2.4-7.5-2.4c-5.8,0-10.3,3.2-10.3,8.5c0,4.7,3.2,7.4,7.9,9.2l1.8,0.7c4,1.6,5.8,2.9,5.8,5.9
	c0,3.6-2.9,5.6-7.3,5.6c-2,0-3.4-0.4-4.8-1.2l-0.9-5.4h-2.8l-0.3,6.4c2.1,1.3,5.5,2.4,8.9,2.4C522.5,80.4,527.1,77.1,527.1,71.6
	L527.1,71.6z"/>
<path d="M534.2,51.1h7.1c0.1,4,0.1,8,0.1,12v2.3c0,4,0,8-0.1,11.9l-4.7,0.5v1.8h13.8v-1.8l-4.7-0.5c-0.1-4-0.1-8-0.1-11.9v-2.3
	c0-4,0-8,0.1-12h7.1l1.1,5.9h2.6l-0.4-8.2H531l-0.4,8.2h2.6L534.2,51.1L534.2,51.1z"/>
<path d="M582.2,71.5l-1,5.9h-11.9c-0.1-4-0.1-8-0.1-12.4h7l0.6,4.4h2.1V58.5h-2.1l-0.6,4.4h-6.9c0-4,0-7.9,0.1-11.7h11l1,5.9h2.6
	l-0.3-8.2h-22.9v1.8l4.3,0.5c0.1,4,0.1,8,0.1,11.9v2.3c0,4,0,8-0.1,11.9l-4.3,0.5v1.8h23.8l0.3-8.2H582.2L582.2,71.5z"/>
<path d="M452.6,112.1h7.1c0.1,4,0.1,8,0.1,12v2.3c0,4,0,8-0.1,11.9l-4.7,0.5v1.8h13.8v-1.8l-4.7-0.5c-0.1-4-0.1-8-0.1-11.9v-2.3
	c0-4,0-8,0.1-12h7.1l1.1,5.9h2.6l-0.4-8.2h-25.1l-0.4,8.2h2.6L452.6,112.1L452.6,112.1z"/>
<path d="M511.2,138.8l-4.3-0.5c-0.1-4-0.1-8-0.1-11.9v-2.3c0-4,0-8,0.1-11.9l4.3-0.5v-1.8h-12.9v1.8l4.3,0.5
	c0.1,3.9,0.1,7.8,0.1,11.7h-15.2c0-3.9,0-7.8,0.1-11.7l4.3-0.5v-1.8H479v1.8l4.3,0.5c0.1,4,0.1,8,0.1,11.9v2.3c0,4,0,8-0.1,11.9
	l-4.3,0.5v1.8h12.9v-1.8l-4.3-0.5c-0.1-3.9-0.1-7.9-0.1-12.4h15.2c0,4.6,0,8.6-0.1,12.4l-4.3,0.5v1.8h12.9V138.8z"/>
<path d="M520.9,138.3l-4.3,0.5v1.8h23.8l0.3-8.2h-2.6l-1,5.9h-11.9c-0.1-4-0.1-8-0.1-12.4h7l0.6,4.4h2.1v-10.9h-2.1l-0.6,4.4h-6.9
	c0-4,0-7.9,0.1-11.7h11l1,5.9h2.6l-0.3-8.2h-22.9v1.8l4.3,0.5c0.1,4,0.1,8,0.1,11.9v2.3C521,130.4,520.9,134.4,520.9,138.3
	L520.9,138.3z"/>
<path d="M454.3,199.3l-4.3,0.5v1.8h12.6c8.7,0,12.1-4.2,12.1-8.4c0-3.7-2.5-6.7-8.7-7.6c5-1,7.1-4,7.1-7.3c0-4.4-3.7-7.5-10-7.5
	h-13.2v1.8l4.3,0.5c0.1,4,0.1,8,0.1,11.9v2.3C454.4,191.4,454.4,195.4,454.3,199.3L454.3,199.3z M458.7,173h3.3
	c4.7,0,7.2,1.5,7.2,5.7s-2.4,6-8.1,6h-2.5C458.6,180.7,458.6,176.8,458.7,173L458.7,173z M461.2,186.8c6.4,0,9.2,2.2,9.2,6.4
	c0,4.1-2.9,6.3-8.9,6.3h-2.9c-0.1-4-0.1-8.2-0.1-12.7H461.2z"/>
<path d="M483.3,199.3l-4.3,0.5v1.8h23.8l0.3-8.2h-2.6l-1,5.9h-11.9c-0.1-4-0.1-8-0.1-12.4h7l0.6,4.4h2.1v-10.9h-2.1l-0.6,4.4h-6.9
	c0-4,0-7.9,0.1-11.7h11l1,5.9h2.6l-0.3-8.2H479v1.8l4.3,0.5c0.1,4,0.1,8,0.1,11.9v2.3C483.4,191.4,483.4,195.4,483.3,199.3
	L483.3,199.3z"/>
<path d="M527.6,193.6c0-4.3-2.3-7-8.4-9.3l-1.8-0.7c-3.4-1.3-5.2-3-5.2-5.9c0-3.4,2.7-5.2,6.3-5.2c1.4,0,2.6,0.3,3.8,0.9l1,5.2h2.8
	l0.3-6c-2-1.5-4.4-2.4-7.5-2.4c-5.8,0-10.3,3.2-10.3,8.5c0,4.7,3.2,7.4,7.9,9.2l1.8,0.7c4,1.6,5.8,2.9,5.8,5.9
	c0,3.6-2.9,5.6-7.3,5.6c-2,0-3.4-0.4-4.8-1.2l-0.9-5.4h-2.8l-0.3,6.4c2.1,1.3,5.5,2.4,8.9,2.4C523.1,202.4,527.7,199,527.6,193.6
	L527.6,193.6z"/>
<path d="M546.3,170.8h-14.8l-0.4,8.2h2.6l1.1-5.9h7.1c0.1,4,0.1,8,0.1,12v2.3c0,4,0,8-0.1,11.9l-4.7,0.5v1.8H551v-1.8l-4.7-0.5
	c-0.1-4-0.1-8-0.1-11.9v-2.3c0-4,0-8,0.1-12h7.1l1.1,5.9h2.6l-0.4-8.2H546.3L546.3,170.8z"/>
<path d="M464.3,263.4c7.1,0,14-6,14-16.1s-7-16.1-14-16.1s-14.1,6-14.1,16.1S457.2,263.4,464.3,263.4z M464.3,233.5
	c6.5,0,9.2,6.9,9.2,13.8s-2.7,13.8-9.2,13.8s-9.2-6.9-9.2-13.8S457.8,233.5,464.3,233.5z"/>
<path d="M502.3,234.1l1,5.9h2.6l-0.3-8.2h-22.9v1.8l4.3,0.5c0.1,4,0.1,8,0.1,11.9v2.3c0,4,0,8-0.1,11.9l-4.3,0.5v1.8h12.9v-1.8
	l-4.3-0.5c-0.1-3.9-0.1-8-0.1-12.3h7.3l0.6,4.8h2.1v-11.4h-2.1l-0.6,4.4h-7.3c0-4,0-7.9,0.1-11.7L502.3,234.1L502.3,234.1z"/>
<path d="M455.6,288c0.6-1,0.6-1.1,0.6-1.2c0-0.5-0.4-1-1.1-1.5c-0.7-0.5-1.2-0.7-1.7-0.7c-0.7,0-1.4,0.3-2.2,1
	c-0.9,0.7-1.3,1.4-1.3,2.1l-0.4,27.3c0,1,0.2,2.8,0.5,5.1c0.4,3,1.5,4.5,3.5,4.5c0.5,0,1.2-0.3,2-0.8l0.4-0.3l-0.3-0.4
	c-1.1-1.6-1.7-5.1-1.7-10.5c0-6.6,0.4-13.9,1.3-21.8C455.4,288.6,455.6,288.1,455.6,288L455.6,288z"/>
<path d="M482.4,289.6l0.3-0.4v0.5h0.4l0-0.1c0.5-0.1,1.1-0.6,1.1-1.9c0-3.3-5.4-3.3-7.2-3.3c-2,0-5.3,0.2-9.8,0.8
	c-7.2,0.9-8.6,1.6-8.9,2.2l-0.1,0.2l0.1,0.2c0.4,1,1.3,2.2,3.5,2.2c0.7,0,1.8-0.1,3.2-0.4c1.3-0.3,2.3-0.4,3-0.4
	c0.1,0,0.2,0,0.2,0.1c0,0.4,0,1,0,1.8c0,1.8-0.1,4.2-0.5,7.2c-0.4,3.8-0.6,6.2-0.6,7.2c-0.2,2.2-0.3,5.5-0.3,9.8c0,3,0.1,5,0.4,5.9
	c0.8,3.2,2.8,3.8,4.3,3.8c0.2,0,1.1-0.1,1.1-1.3v-0.1l-0.1-0.1c-1-1.6-1.5-4.9-1.5-9.7c0-6.6,0.4-12.9,1.1-18.7
	c0.3-2,0.5-3.5,0.7-4.5c0.2-1.2,0.4-1.6,0.4-1.7c0,0,0.2-0.2,1.3-0.2h2.6c3,0,3.9,0.2,4.2,0.4C482.1,289.5,482.3,289.6,482.4,289.6
	L482.4,289.6z"/>
<path d="M505.5,311.4c-0.8-0.2-1.2-0.4-1.4-0.4c-0.8-7.3-1.4-12.4-2-15c-1.7-7.9-4.1-11.7-7.3-11.7c-1.9,0-5.3,2.3-12.2,21.9
	c-1.8,5.1-3.1,9.9-3.8,14.2c0,0.1-0.1,0.4-0.5,1.4c-0.4,1.1-0.5,1.5-0.5,1.7c0,0.6,0.4,1.2,1.1,1.8c0.7,0.6,1.4,0.9,2,0.9
	c0.5,0,0.9-0.2,1.2-0.6l0.1-0.1v-0.1c0-0.9,0.2-2.4,0.5-4.4c0.5-3.3,0.9-3.8,0.9-3.8c0.3-0.3,1.6-0.8,6.7-1.5
	c3.5-0.5,6.1-0.7,7.7-0.7c0.3,0,0.8,0,1.4-0.1c0.4,0,0.8-0.1,1-0.1c0,0.2,0,0.5,0,0.9v1.9c0,0.9-0.1,1.6-0.1,1.9
	c0,1.4,0.2,2.4,0.5,3.1l0.1,0.2l0.2,0.1c1.4,0.7,2.6,0.6,3.5-0.1c0.6-0.4,0.9-0.9,0.9-1.6v-0.1l0-0.1c-0.8-2.1-1.3-4-1.4-5.7
	c0.2,0,0.5,0.1,0.7,0.1c0.7,0,1.9-0.3,1.9-2.3C506.9,312.4,506.8,311.7,505.5,311.4L505.5,311.4z M488.6,311.7
	c-2.8,0.5-3.3,0.6-3.4,0.6s-0.2,0-0.3-0.1c-0.1-0.1-0.1-0.3,0-0.7c0.3-1,0.5-1.7,0.7-2.2c1.3-3.7,2.6-7.4,4-11
	c3-7.4,4.7-8.5,5.5-8.5l0,0c0.4,0,1.8,0.7,3.5,9.2c0.3,1.4,0.9,5.3,1.8,11.7C494,311.1,490.2,311.4,488.6,311.7L488.6,311.7z"/>
<path d="M528.8,319.3c-1.2,0-2.8,0.3-5,1c-2,0.6-3.6,1-4.7,1c-3.2,0-4.7-2.4-4.7-7.3c0-2.7,0.2-6.8,0.8-12.2
	c0.5-5.4,0.8-9.6,0.8-12.3c0-1.3,0-5.2-2.5-5.2c-0.9,0-1.6,0.3-2.1,0.9l-0.1,0.1v0.2c0,0.4-0.1,0.9-0.1,1.2c0,0.5,0,1.3,0.1,2.2
	c0.1,0.9,0.1,1.7,0.1,2.1c0,2.3-0.2,5.9-0.5,10.5c-0.4,4.7-0.5,8.3-0.5,10.7c0,3.8,0.5,6.6,1.4,8.5c1.3,2.8,3.8,4.1,7.2,4.1
	c4.5,0,8.6-0.7,12.1-2l0.3-0.1v-0.3c0-0.8-0.2-1.5-0.6-2.1C530.3,319.7,529.6,319.3,528.8,319.3L528.8,319.3z"/>
<path d="M553.1,284.7c-1.1,0-2.8,1.1-6.4,9.7c-3.3,7.8-4.7,10.4-5.2,11.2c-0.8-0.2-2.2-1.3-4.6-6.5c-1.9-4.2-2.8-7.1-2.8-8.8
	c0-0.1,0-0.3,0.2-0.8c0.2-0.5,0.3-0.9,0.3-1.2c0-0.9-0.2-1.8-0.6-2.7c-0.6-1-1.4-1.5-2.4-1.5c-0.9,0-2.3,0.4-2.3,2.9
	s1.5,7.2,4.5,14.2c1.8,4,3.9,7,6.2,9c-0.7,2-1.4,4-2,6c-1.4,4-2.1,5-2.3,5.3c-0.5,0.5-0.9,0.9-1.1,1l-0.3,0.2l0.1,0.3
	c0.8,2.4,2,3.6,3.4,3.6c0.7,0,1.5-0.3,2.2-0.8l0.2-0.2l0-0.3c-0.3-3.2,1.1-8.6,4-16.3c2-5.2,4.5-10.7,7.3-16.1c0.3-0.7,1-1.6,2-2.8
	c1.1-1.2,1.8-2.2,2.2-2.9l0.1-0.1l0-0.2C555.7,286,555.3,284.7,553.1,284.7L553.1,284.7z"/>
</svg>
